<svg id="blackboard" xmlns="http://www.w3.org/2000/svg" width="34" height="34" viewBox="0 0 34 34">
  <g id="Group_70" data-name="Group 70">
    <g id="Group_69" data-name="Group 69">
      <path id="Path_100" data-name="Path 100" d="M33.433,0H.567A.566.566,0,0,0,0,.567V22.1a.566.566,0,0,0,.567.567H7.775L5.117,33.3a.566.566,0,0,0,.55.7h3.4a.566.566,0,0,0,.55-.429l2.726-10.9h2.391V33.433A.566.566,0,0,0,15.3,34h3.4a.566.566,0,0,0,.567-.567V22.667h2.391l2.726,10.9a.566.566,0,0,0,.55.429h3.4a.566.566,0,0,0,.55-.7L26.225,22.667h7.208A.566.566,0,0,0,34,22.1V.567A.566.566,0,0,0,33.433,0ZM8.624,32.867H6.393l2.55-10.2h2.232Zm9.509,0H15.867v-10.2h2.267Zm9.474,0H25.376l-2.55-10.2h2.232Zm5.259-11.333H1.133V1.133H32.867Z" fill="#81b400"/>
    </g>
  </g>
  <g id="Group_72" data-name="Group 72" transform="translate(2.267 2.267)">
    <g id="Group_71" data-name="Group 71">
      <path id="Path_101" data-name="Path 101" d="M60.9,32H32.567a.566.566,0,0,0-.567.567v17a.566.566,0,0,0,.567.567H60.9a.566.566,0,0,0,.567-.567v-17A.566.566,0,0,0,60.9,32ZM58.633,49H52.967v-.567h5.667Zm0-1.7H52.967v-.567h5.667Zm1.7,1.7h-.567V46.167A.566.566,0,0,0,59.2,45.6H52.4a.566.566,0,0,0-.567.567V49h-18.7V33.133h27.2Z" transform="translate(-32 -32)" fill="#81b400"/>
    </g>
  </g>
  <g id="Group_74" data-name="Group 74" transform="translate(5.95 17.85)">
    <g id="Group_73" data-name="Group 73" transform="translate(0 0)">
      <rect id="Rectangle_17" data-name="Rectangle 17" width="3" height="1" transform="translate(0.05 0.15)" fill="#81b400"/>
    </g>
  </g>
  <g id="Group_76" data-name="Group 76" transform="translate(6.519 7.304)">
    <g id="Group_75" data-name="Group 75">
      <path id="Path_102" data-name="Path 102" d="M103.81,104.308a3.223,3.223,0,0,1-1.2-.231l-1.886-.754a1.257,1.257,0,0,0-.968.012L97.031,104.5a.131.131,0,0,1-.126-.012.127.127,0,0,1-.06-.111,1.266,1.266,0,0,0-1.895-1.1l-2.92,1.668.562.984,2.92-1.668a.129.129,0,0,1,.133,0,.126.126,0,0,1,.066.115,1.266,1.266,0,0,0,1.765,1.164l2.725-1.168a.138.138,0,0,1,.1,0l1.885.754a4.352,4.352,0,0,0,1.62.312h2.669v-1.133H103.81Z" transform="translate(-92.031 -103.112)" fill="#81b400"/>
    </g>
  </g>
</svg>
