<svg xmlns="http://www.w3.org/2000/svg" width="36.229" height="34.143" viewBox="0 0 36.229 34.143">
  <g id="bus" transform="translate(0 0)">
    <path id="Path_106" data-name="Path 106" d="M35.129,6.392h-.669a1.951,1.951,0,0,0-1.949-1.914H30.891V1.95A1.952,1.952,0,0,0,28.942,0H7.288a1.952,1.952,0,0,0-1.95,1.95V4.478H3.718A1.952,1.952,0,0,0,1.77,6.392H1.1A1.1,1.1,0,0,0,0,7.493v5.669a1.1,1.1,0,0,0,1.1,1.1H3.5a1.1,1.1,0,0,0,1.1-1.1V7.493a1.1,1.1,0,0,0-1.1-1.1H2.834a.887.887,0,0,1,.884-.851H5.338V25.269a.532.532,0,1,0,1.064,0V20.884a1.935,1.935,0,0,0,.886.214H28.942a1.935,1.935,0,0,0,.886-.214v8.585a.887.887,0,0,1-.886.886H7.288a.887.887,0,0,1-.886-.886V27.727a.532.532,0,1,0-1.064,0v1.742a1.952,1.952,0,0,0,1.95,1.949h.553v1.236A1.491,1.491,0,0,0,9.33,34.143h2.39a1.491,1.491,0,0,0,1.489-1.489V31.418h9.812v1.236a1.491,1.491,0,0,0,1.489,1.489H26.9a1.491,1.491,0,0,0,1.489-1.489V31.418h.553a1.952,1.952,0,0,0,1.95-1.949V5.541h1.619a.887.887,0,0,1,.884.851h-.666a1.1,1.1,0,0,0-1.1,1.1v5.669a1.1,1.1,0,0,0,1.1,1.1h2.4a1.1,1.1,0,0,0,1.1-1.1V7.493a1.1,1.1,0,0,0-1.1-1.1ZM3.5,7.456a.037.037,0,0,1,.037.037v5.669A.037.037,0,0,1,3.5,13.2H1.1a.037.037,0,0,1-.037-.037V7.493A.037.037,0,0,1,1.1,7.456Zm8.645,25.2a.426.426,0,0,1-.425.425H9.33a.426.426,0,0,1-.425-.425V31.418h3.241v1.236Zm15.18,0a.426.426,0,0,1-.425.425h-2.39a.426.426,0,0,1-.425-.425V31.418h3.241Zm2.5-26.3H8.354a.532.532,0,0,0,0,1.064H29.828V17.487H26.315a.532.532,0,0,0,0,1.064h3.513v.6a.887.887,0,0,1-.886.886H7.288a.887.887,0,0,1-.886-.886v-.6H23.834a.532.532,0,0,0,0-1.064H18.6l5.017-4.194a.531.531,0,0,0-.681-.814l-5.991,5.008H14.666l5.016-4.194A.531.531,0,1,0,19,12.479l-5.991,5.008H6.4V4.649H29.828Zm0-2.765H6.4V1.95a.887.887,0,0,1,.886-.886H28.942a.887.887,0,0,1,.886.886Zm5.338,9.575a.037.037,0,0,1-.037.037h-2.4a.037.037,0,0,1-.037-.037V7.493a.037.037,0,0,1,.037-.037h2.4a.037.037,0,0,1,.037.037Zm0,0" transform="translate(0 0)" fill="#7c94b8"/>
    <path id="Path_107" data-name="Path 107" d="M115.317,327.039a.887.887,0,0,0,.886-.886V325.3a2.094,2.094,0,0,0-2.092-2.091h-3.261a.887.887,0,0,0-.886.886v.851a2.094,2.094,0,0,0,2.092,2.092Zm-4.29-2.092v-.674h3.084a1.029,1.029,0,0,1,1.028,1.028v.674h-3.084a1.029,1.029,0,0,1-1.028-1.028Zm0,0" transform="translate(-102.183 -300.34)" fill="#7c94b8"/>
    <path id="Path_108" data-name="Path 108" d="M318.011,327.039a2.094,2.094,0,0,0,2.092-2.092V324.1a.887.887,0,0,0-.886-.886h-3.261a2.094,2.094,0,0,0-2.092,2.091v.851a.887.887,0,0,0,.886.886Zm-3.084-1.737a1.029,1.029,0,0,1,1.028-1.028h3.084v.674a1.029,1.029,0,0,1-1.028,1.028h-3.084Zm0,0" transform="translate(-291.655 -300.34)" fill="#7c94b8"/>
    <path id="Path_109" data-name="Path 109" d="M218.579,381.418a.682.682,0,0,0,.681-.681v-1.4a.682.682,0,0,0-.681-.681h-4.694a.682.682,0,0,0-.681.681v1.4a.682.682,0,0,0,.681.681Zm-4.312-1.7h3.93v.638h-3.93Zm0,0" transform="translate(-198.117 -351.86)" fill="#7c94b8"/>
  </g>
</svg>
