<svg xmlns="http://www.w3.org/2000/svg" width="16.536" height="18.376" viewBox="0 0 16.536 18.376"><defs><style>.a{fill:#4942ad;}</style></defs><path class="a" d="M38.741,9.025h1.282a.526.526,0,0,0,.526-.526V7.217a.526.526,0,0,0-.526-.526H38.741a.526.526,0,0,0-.526.526V8.5A.526.526,0,0,0,38.741,9.025Zm.013-1.794H40.01V8.486H38.754Zm-.013,5.2h1.282a.526.526,0,0,0,.526-.526V10.627a.526.526,0,0,0-.526-.526H38.741a.526.526,0,0,0-.526.526v1.282A.526.526,0,0,0,38.741,12.434Zm.013-1.794H40.01V11.9H38.754ZM35.083,9.025h1.282A.526.526,0,0,0,36.89,8.5V7.217a.526.526,0,0,0-.526-.526H35.083a.526.526,0,0,0-.526.526V8.5A.526.526,0,0,0,35.083,9.025ZM35.1,7.23h1.256V8.486H35.1Zm-6.047,6.121H27.768a.526.526,0,0,0-.526.526v1.282a.526.526,0,0,0,.526.526h1.282a.526.526,0,0,0,.526-.526V13.877A.526.526,0,0,0,29.049,13.351Zm-.013,1.794H27.78V13.889h1.256Zm.013-8.454H27.768a.526.526,0,0,0-.526.526V8.5a.526.526,0,0,0,.526.526h1.282a.526.526,0,0,0,.526-.526V7.217A.526.526,0,0,0,29.049,6.692Zm-.013,1.794H27.78V7.23h1.256Zm6.047,3.868h1.282a.526.526,0,0,0,.526-.526V10.547a.526.526,0,0,0-.526-.526H35.083a.526.526,0,0,0-.526.526v1.282A.526.526,0,0,0,35.083,12.354ZM35.1,10.56h1.256v1.256H35.1Zm5.72-9.33H39.665V.819A.819.819,0,0,0,38.846,0h-.124A.819.819,0,0,0,37.9.819V1.23H29.886V.819A.819.819,0,0,0,29.068,0h-.124a.819.819,0,0,0-.819.819V1.23H26.975a1.349,1.349,0,0,0-1.348,1.348V17.03a1.347,1.347,0,0,0,1.346,1.346H40.817a1.347,1.347,0,0,0,1.346-1.346V2.578A1.349,1.349,0,0,0,40.815,1.23ZM38.442.819a.28.28,0,0,1,.28-.28h.124a.281.281,0,0,1,.28.28V1.23h-.684Zm-9.778,0a.281.281,0,0,1,.28-.28h.124a.281.281,0,0,1,.28.28V1.23h-.684V.819ZM41.625,17.03a.808.808,0,0,1-.808.808H26.973a.808.808,0,0,1-.808-.808v0a1.341,1.341,0,0,0,.809.271H37.888a1.339,1.339,0,0,0,.953-.395l2.784-2.784Zm-3.058-.612a1.151,1.151,0,0,0,.033-.271v-1.8a.615.615,0,0,1,.615-.614h1.8a1.151,1.151,0,0,0,.271-.033ZM41.625,5.077H30.155a.269.269,0,0,0,0,.538H41.625v6.967a.615.615,0,0,1-.615.615h-1.8a1.154,1.154,0,0,0-1.153,1.153v1.8a.615.615,0,0,1-.614.615H26.975a.81.81,0,0,1-.809-.809V5.615h2.913a.269.269,0,0,0,0-.538H26.165v-2.5a.81.81,0,0,1,.809-.809h1.151V2.56a.819.819,0,0,0,.819.819.269.269,0,1,0,0-.538.281.281,0,0,1-.28-.28V1.768H37.9V2.56a.819.819,0,0,0,.819.819.269.269,0,0,0,0-.538.28.28,0,0,1-.28-.28V1.768h2.373a.81.81,0,0,1,.809.809ZM29.049,10.021H27.768a.526.526,0,0,0-.526.526v1.282a.526.526,0,0,0,.526.526h1.282a.526.526,0,0,0,.526-.526V10.547A.526.526,0,0,0,29.049,10.021Zm-.013,1.794H27.78V10.56h1.256Zm2.389-2.791h1.282a.526.526,0,0,0,.526-.526V7.217a.526.526,0,0,0-.526-.526H31.425a.526.526,0,0,0-.526.526V8.5A.526.526,0,0,0,31.425,9.025Zm.013-1.794h1.256V8.486H31.438ZM35.1,15.146a.269.269,0,0,0-.538.013.526.526,0,0,0,.526.526h1.282a.526.526,0,0,0,.526-.526V13.877a.526.526,0,0,0-.526-.526H35.083a.526.526,0,0,0-.526.526v.37a.269.269,0,1,0,.538,0v-.357h1.256v1.256Zm-3.67-2.791h1.282a.526.526,0,0,0,.526-.526V10.547a.526.526,0,0,0-.526-.526H31.425a.526.526,0,0,0-.526.526v1.282A.526.526,0,0,0,31.425,12.354Zm.013-1.794h1.256v1.256H31.438Zm-.013,5.124h1.282a.526.526,0,0,0,.526-.526V13.877a.526.526,0,0,0-.526-.526H31.425a.526.526,0,0,0-.526.526v1.282A.526.526,0,0,0,31.425,15.684Zm.013-1.794h1.256v1.256H31.438Z" transform="translate(-25.627 0)"/></svg>