<svg xmlns="http://www.w3.org/2000/svg" width="20.532" height="20.532" viewBox="0 0 20.532 20.532"><defs><style>.a{fill:#fe6d0c;}</style></defs><g transform="translate(9.471 4.763)"><path class="a" d="M240.622,126.095l-2.863-2.147v-4.374a.8.8,0,1,0-1.59,0v4.771a.794.794,0,0,0,.318.636l3.181,2.386a.8.8,0,0,0,.954-1.272Z" transform="translate(-236.169 -118.779)"/></g><path class="a" d="M10.266,0A10.266,10.266,0,1,0,20.532,10.266,10.277,10.277,0,0,0,10.266,0Zm0,18.942a8.676,8.676,0,1,1,8.676-8.676A8.686,8.686,0,0,1,10.266,18.942Z"/></svg>