<svg xmlns="http://www.w3.org/2000/svg" width="19.184" height="16.564" viewBox="0 0 19.184 16.564"><defs><style>.a{fill:#029acb;}</style></defs><g transform="translate(0 0)"><path class="a" d="M170.305,37.23a.562.562,0,0,0,.562-.562V35.536a.562.562,0,1,0-1.124,0v1.132A.562.562,0,0,0,170.305,37.23Z" transform="translate(-163.383 -34.974)"/><path class="a" d="M1.823,133.611l-.98-.566a.562.562,0,1,0-.562.973l.98.566a.562.562,0,1,0,.562-.973Z" transform="translate(0 -129.298)"/><path class="a" d="M1.261,313.943l-.98.566a.562.562,0,1,0,.562.973l.98-.566a.562.562,0,1,0-.562-.973Z" transform="translate(0 -303.418)"/><path class="a" d="M314.165,134.585l.98-.566a.562.562,0,1,0-.562-.973l-.98.566a.562.562,0,0,0,.562.973Z" transform="translate(-301.582 -129.298)"/><path class="a" d="M77.264,131.267a4.225,4.225,0,0,0-3.921-2.634,4.5,4.5,0,1,0-6.519,5.626,3.172,3.172,0,0,0,2.676,4.866c8.843-.009,8.359.023,8.513-.025a3.935,3.935,0,0,0-.749-7.832Zm-11.4-.8a3.371,3.371,0,0,1,6.3-1.666,4.216,4.216,0,0,0-3.029,4,3.113,3.113,0,0,0-1.538.611A3.374,3.374,0,0,1,65.867,130.469ZM77.8,137.991c-.2.016-5.3.007-8.3.01a2.048,2.048,0,0,1-1.378-3.556,2.023,2.023,0,0,1,1.566-.524.562.562,0,0,0,.607-.638,3.092,3.092,0,0,1,6.044-1.247.562.562,0,0,0,.656.4,2.811,2.811,0,1,1,.805,5.553Z" transform="translate(-62.317 -122.563)"/></g></svg>