<svg xmlns="http://www.w3.org/2000/svg" width="33.832" height="25.77" viewBox="0 0 33.832 25.77">
  <g id="email" transform="translate(0 -61)">
    <g id="Group_68" data-name="Group 68" transform="translate(0 61)">
      <path id="Path_99" data-name="Path 99" d="M30.858,61H2.973A2.979,2.979,0,0,0,0,63.973V83.8A2.978,2.978,0,0,0,2.973,86.77H30.858A2.978,2.978,0,0,0,33.832,83.8V63.973A2.978,2.978,0,0,0,30.858,61Zm-.411,1.982L16.979,76.451,3.394,62.982ZM1.982,83.386V64.374l9.547,9.465Zm1.4,1.4,9.553-9.553,3.347,3.319a.991.991,0,0,0,1.4,0l3.264-3.264,9.5,9.5Zm28.465-1.4-9.5-9.5,9.5-9.5Z" transform="translate(0 -61)" fill="#ffc20e"/>
    </g>
  </g>
</svg>
