<svg xmlns="http://www.w3.org/2000/svg" width="56.583" height="50.016" viewBox="0 0 56.583 50.016">
  <path id="folder" d="M50.179,17.875h-3.6V12.2a6.746,6.746,0,0,0-6.738-6.738H30.393a4.492,4.492,0,0,1-2.951-1.1L24.429,1.737a6.405,6.405,0,0,0-4.2-1.573H6.738A6.746,6.746,0,0,0,0,6.9V42.426a7.764,7.764,0,0,0,7.347,7.744v.011H45.521A6.417,6.417,0,0,0,51.8,45.037l4.655-19.482.008-.037a6.4,6.4,0,0,0-6.282-7.644ZM1.908,42.426V6.9A4.836,4.836,0,0,1,6.738,2.071H20.226a4.5,4.5,0,0,1,2.952,1.1L26.19,5.8a6.4,6.4,0,0,0,4.2,1.573h9.453A4.837,4.837,0,0,1,44.677,12.2v5.673h-.906a5.23,5.23,0,0,0-5.133-4.268h-.315A5.321,5.321,0,0,0,33.1,9.247H11.163a6.41,6.41,0,0,0-6.4,6.4V47.445A5.848,5.848,0,0,1,1.908,42.426Zm36.73-26.912a3.319,3.319,0,0,1,3.174,2.361h-16.2a6.379,6.379,0,0,0-6.226,4.905L13.454,43.734l-.011.04a5.841,5.841,0,0,1-1.327,2.551V20.01a4.5,4.5,0,0,1,4.5-4.5ZM6.667,48.17V15.65a4.5,4.5,0,0,1,4.5-4.5H33.1a3.411,3.411,0,0,1,3.27,2.452H16.612a6.41,6.41,0,0,0-6.4,6.4V47.736A5.86,5.86,0,0,1,6.667,48.17ZM54.594,25.131l-4.654,19.48-.008.037a4.507,4.507,0,0,1-4.411,3.625H12.859A7.739,7.739,0,0,0,15.3,44.235L21.229,23.28l.011-.04a4.48,4.48,0,0,1,4.374-3.459H50.179a4.5,4.5,0,0,1,4.414,5.349Zm0,0" transform="translate(0 -0.164)" fill="#fff"/>
</svg>
