<svg xmlns="http://www.w3.org/2000/svg" width="33.607" height="42.462" viewBox="0 0 33.607 42.462"><defs><style>.a{fill:#ff7a4e;}</style></defs><g transform="translate(-134.387 -14)"><path class="a" d="M82.448,27.741l-2.492-.732-5.422-3.541v-.811a7.216,7.216,0,0,0,2.848-5.068,1.657,1.657,0,0,0,1.39-1.633V13.723c0-.009,0-.017,0-.026V10.871a1.226,1.226,0,0,0,.513-1V7.284l3.742-.637a1.326,1.326,0,0,0,.179-2.572L70.591.063a1.32,1.32,0,0,0-.8,0L57.173,4.075A1.331,1.331,0,0,0,56.76,6.39V9.773h-.031a1.29,1.29,0,0,0-1.288,1.288V12.74l-.832,4.881a1.385,1.385,0,0,0,1.365,1.617h2.816a1.385,1.385,0,0,0,1.365-1.617l-.832-4.881V11.061a1.29,1.29,0,0,0-1.288-1.288H58V6.757l3.093.527V9.87a1.227,1.227,0,0,0,.51,1v5.086A1.657,1.657,0,0,0,63,17.588a7.217,7.217,0,0,0,2.845,5.067v.815L60.423,27.01l-2.49.731a6.325,6.325,0,0,0-4.546,6.072v1.854a.622.622,0,1,0,1.244,0V33.813a5.112,5.112,0,0,1,3.652-4.878l2.32-.681,9.269,5.508a.629.629,0,0,0,.635,0l9.27-5.508,2.32.681a5.112,5.112,0,0,1,3.652,4.878V39.82a1.4,1.4,0,0,1-1.4,1.4H81.611V38.537a.622.622,0,1,0-1.244,0v2.681H60.011V38.537a.622.622,0,0,0-1.244,0v2.681H56.028a1.4,1.4,0,0,1-1.4-1.4V38.575a.622.622,0,1,0-1.244,0V39.82a2.644,2.644,0,0,0,2.641,2.641H84.352a2.644,2.644,0,0,0,2.641-2.641V33.813a6.325,6.325,0,0,0-4.546-6.072ZM58.789,17.994H55.974a.14.14,0,0,1-.139-.164l.752-4.415h1.588l.752,4.415A.14.14,0,0,1,58.789,17.994Zm-.711-6.933v1.11H56.685v-1.11a.044.044,0,0,1,.044-.044h1.306A.044.044,0,0,1,58.079,11.061Zm9.887,19.887.248.38-6.35-3.773,4.031-2.633A13.065,13.065,0,0,0,67.966,30.948Zm0-2.685a15.994,15.994,0,0,0,4.458,0,11.88,11.88,0,0,1-1.047,2.007L70.19,32.086,69.008,30.27a11.88,11.88,0,0,1-1.047-2.007Zm4.453,2.685a13.064,13.064,0,0,0,2.072-6.025l4.031,2.633-6.35,3.773ZM76.053,11.1h1.474v2H76.8a.743.743,0,0,1-.743-.743V11.1ZM57.55,5.26,70.164,1.248a.082.082,0,0,1,.05,0L82.828,5.26a.069.069,0,0,1,.057.084c0,.065-.041.071-.068.076l-4.171.71-1.566-.194a.622.622,0,1,0-.153,1.235l1.112.138v2.55h-15.7V7.309l6.436-.8a11.521,11.521,0,0,1,2.825,0l2.436.3a.622.622,0,1,0,.153-1.235l-2.436-.3a12.76,12.76,0,0,0-3.13,0l-6.891.853-4.172-.71c-.027,0-.064-.011-.068-.076a.069.069,0,0,1,.057-.084Zm5.3,7.841v-2h1.477v1.256a.743.743,0,0,1-.743.743h-.733Zm1.369,4.167a.964.964,0,0,0-.958-.9.411.411,0,0,1-.41-.41V14.345h.733a1.989,1.989,0,0,0,1.987-1.986V11.1h9.238v1.256A1.989,1.989,0,0,0,76.8,14.345h.733v1.609a.411.411,0,0,1-.41.41.964.964,0,0,0-.958.9,5.982,5.982,0,0,1-11.939,0Zm5.97,6.845a7.179,7.179,0,0,0,3.1-.7V23.8a11.854,11.854,0,0,1-.42,3.124,14.687,14.687,0,0,1-5.36,0,11.853,11.853,0,0,1-.42-3.124c0-.013,0-.026,0-.039s0-.005,0-.008v-.349A7.18,7.18,0,0,0,70.19,24.113Z" transform="translate(81 14)"/></g></svg>