<svg id="information" xmlns="http://www.w3.org/2000/svg" width="24.638" height="24.638" viewBox="0 0 24.638 24.638">
  <path id="Path_192" data-name="Path 192" d="M12.319,0A12.319,12.319,0,1,0,24.638,12.319,12.333,12.333,0,0,0,12.319,0Zm0,22.4A10.079,10.079,0,1,1,22.4,12.319,10.09,10.09,0,0,1,12.319,22.4Z" fill="#fff"/>
  <path id="Path_193" data-name="Path 193" d="M20.827,9.333a1.493,1.493,0,1,0,1.493,1.494A1.5,1.5,0,0,0,20.827,9.333Z" transform="translate(-8.508 -4.107)" fill="#fff"/>
  <path id="Path_194" data-name="Path 194" d="M21.12,18.667A1.12,1.12,0,0,0,20,19.787v6.719a1.12,1.12,0,1,0,2.24,0V19.787A1.12,1.12,0,0,0,21.12,18.667Z" transform="translate(-8.801 -8.214)" fill="#fff"/>
</svg>
