<svg xmlns="http://www.w3.org/2000/svg" xmlns:xlink="http://www.w3.org/1999/xlink" width="124.397" height="107.1" viewBox="0 0 124.397 107.1"><defs><style>.a,.e{opacity:0.3;}.b{fill:#163492;opacity:0.68;}.c{fill:#3bc1ff;}.d{clip-path:url(#a);}.e,.f{fill:#3780d8;}.g{clip-path:url(#b);}.h{clip-path:url(#c);}.i{fill:#9befff;}.j{fill:#da0d67;}.k{clip-path:url(#f);}.l{clip-path:url(#h);}.m,.n,.u{fill:#fffff9;}.m{opacity:0.42;}.o{fill:#590d67;}.p{fill:#fff;}.q{clip-path:url(#m);}.r{clip-path:url(#p);}.s{clip-path:url(#u);}.t{clip-path:url(#v);}.u{opacity:0.2;}.v{fill:#81b400;}.w{fill:#ec1c1c;}.x{fill:#002d71;}.y{fill:#f6b221;}.z{fill:#00afad;}</style><clipPath id="a"><path d="M71.424,249.8a6.909,6.909,0,0,0-4.651,3.031,9.35,9.35,0,0,0-1.8,4.024,11.461,11.461,0,0,0,1.933,7.917,11.99,11.99,0,0,0,1.933,1.881,6.175,6.175,0,0,0,7.76.183" transform="translate(-64.853 -249.8)"/></clipPath><clipPath id="b"><path d="M143.3,303.294s7.969,16.356,9.067,17.271c1.071.914,6.95.653,7.656.523A15.65,15.65,0,0,0,163,319.441a.882.882,0,0,0,.261-1.2L152.471,301.7Z" transform="translate(-143.3 -301.7)"/></clipPath><clipPath id="c"><path class="a" d="M163.8,294.969l12.15,20.746,6.375-4.024L170.175,292.8Z" transform="translate(-163.8 -292.8)"/></clipPath><clipPath id="f"><path d="M169.9,303.075s2.587,4.546,3.292,4.86a5.626,5.626,0,0,0,2.952.026,2.326,2.326,0,0,0,.941-.287l.1-.052a1.124,1.124,0,0,0,.34-1.594l-2.482-3.527Z" transform="translate(-169.9 -302.5)"/></clipPath><clipPath id="h"><path d="M141.055,151.2s-14.58,19.309-34.385,22.34c-6.01,5.827-4.886,16.722,6.036,20.014,18-5.853,41.021,3.475,41.021,3.475Z" transform="translate(-103.051 -151.2)"/></clipPath><clipPath id="m"><ellipse cx="18.238" cy="22.836" rx="18.238" ry="22.836" transform="translate(0 6.175) rotate(-9.747)"/></clipPath><clipPath id="p"><path d="M222.33,189.5l18.185-.6,3.371,18.917-16.33,9.171C227.556,216.962,213.473,202.33,222.33,189.5Z" transform="translate(-219.405 -188.9)"/></clipPath><clipPath id="u"><ellipse cx="5.774" cy="7.812" rx="5.774" ry="7.812" transform="translate(0 1.955) rotate(-9.747)"/></clipPath><clipPath id="v"><path d="M85.912,235.541s-1.646-1.019-5.147.157-7.185,7.159-5.3,14.214c1.568,5.827,7.185,8.648,10.321,8.57,2.561-.078,6.14-2.9,6.14-2.9a13.087,13.087,0,0,1-8.126-8.57A11.5,11.5,0,0,1,85.912,235.541Z" transform="translate(-74.951 -235.132)"/></clipPath></defs><circle class="b" cx="46.482" cy="46.482" r="46.482" transform="translate(0 14.135)"/><g transform="translate(11.171)"><g transform="translate(0 25.491)"><g transform="translate(0 35.127)"><path class="c" d="M71.424,249.8a6.909,6.909,0,0,0-4.651,3.031,9.35,9.35,0,0,0-1.8,4.024,11.461,11.461,0,0,0,1.933,7.917,11.99,11.99,0,0,0,1.933,1.881,6.175,6.175,0,0,0,7.76.183" transform="translate(-64.853 -249.8)"/><g class="d"><path class="e" d="M38.825,282.9a8.044,8.044,0,0,0,3.815,4.233,14.761,14.761,0,0,0,11.732,1.306,36.439,36.439,0,0,1,5.33-1.777c1.333-.209,2.9.052,3.606,1.176.862,1.385-.026,3.161-1.045,4.416a20.028,20.028,0,0,1-16.827,7.238,9.419,9.419,0,0,1-3.162-.705,8.85,8.85,0,0,1-4.311-4.755,26.79,26.79,0,0,1-1.463-6.4" transform="translate(-43.908 -274.252)"/></g></g><g transform="translate(20.497 48.688)"><path class="f" d="M143.3,303.294s7.969,16.356,9.067,17.271c1.071.914,6.95.653,7.656.523A15.65,15.65,0,0,0,163,319.441a.882.882,0,0,0,.261-1.2L152.471,301.7Z" transform="translate(-143.3 -301.7)"/><g class="g"><path class="e" d="M163.8,294.969l12.15,20.746,6.375-4.024L170.175,292.8Z" transform="translate(-158.444 -295.125)"/><g class="h" transform="translate(5.356 -2.325)"><path class="e" d="M188.494,321.6a62.06,62.06,0,0,0-7.891,3.71c-.523.287-1.124.888-.784,1.385.261.366.836.287,1.254.157,3.318-1.045,6.637-2.143,9.9-3.318-3.423,2.3-7.682,3.292-10.713,6.114,4.39-.235,8.361-2.691,12.672-3.553.235.209,0,.575-.235.758-3.135,2.587-7.447,3.292-10.765,5.644,0,.444.653.47,1.045.34,2.953-.941,5.9-1.855,8.857-2.8a10.6,10.6,0,0,0,2.508-1.045" transform="translate(-175.561 -314.075)"/></g></g><g class="g"><path class="e" d="M136.8,297.9a6.224,6.224,0,0,1,3.031-1.542c3.632-.941,7.5-1.1,10.843-2.743a4.174,4.174,0,0,0,1.463-1.045,2.081,2.081,0,0,0,.549-1.672,2.512,2.512,0,0,0-1.672-1.724,8.842,8.842,0,0,0-4.128-.5,17.022,17.022,0,0,0-8.23,3" transform="translate(-138.498 -292.047)"/></g><g class="g"><path class="i" d="M179.155,360.5c.392.862.261,1.8-.314,2.064s-1.359-.235-1.777-1.1c-.392-.862-.261-1.8.314-2.064S178.737,359.638,179.155,360.5Z" transform="translate(-168.076 -344.275)"/></g></g><g transform="translate(27.447 48.897)"><path class="j" d="M169.9,303.075s2.587,4.546,3.292,4.86a5.626,5.626,0,0,0,2.952.026,2.326,2.326,0,0,0,.941-.287l.1-.052a1.124,1.124,0,0,0,.34-1.594l-2.482-3.527Z" transform="translate(-169.9 -302.5)"/><g class="k"><path class="e" d="M178.6,291.095a48.806,48.806,0,0,0,5.827,8.648,1.479,1.479,0,0,0,.679.078.469.469,0,0,0,.183-.131,4.157,4.157,0,0,0,.705-3.135,9.561,9.561,0,0,0-1.071-3.109,5.979,5.979,0,0,0-1.1-1.672,9.931,9.931,0,0,0-1.855-1.228,3,3,0,0,1-1.411-1.646" transform="translate(-176.327 -292.453)"/></g><g class="k"><path class="e" d="M156.9,282.577c.209,1.829,2.613,3.71,4.259,4.572a11.748,11.748,0,0,0,4.572-.862,4.811,4.811,0,0,0,2.9-2.665,3.5,3.5,0,0,0-.418-2.874A4.508,4.508,0,0,0,165.862,279c-1.176-.392-2.508-.366-3.5-1.1" transform="translate(-160.297 -284.328)"/></g></g><g transform="translate(9.981 9.364)"><path class="c" d="M141.055,151.2s-14.58,19.309-34.385,22.34c-6.01,5.827-4.886,16.722,6.036,20.014,18-5.853,41.021,3.475,41.021,3.475Z" transform="translate(-103.051 -151.2)"/><g class="l"><path class="e" d="M105.1,251.567a20.547,20.547,0,0,1,11.209-5.226c3.527-.6,11.1-1.2,14.292-2.822,5.435-2.77,8.779-9.3,11.131-12.62,2.038,2.665,3.083,8.387,5.7,10.53,2.587,2.143,5.147,4.494,6.637,7.5s1.724,6.846-.183,9.615c-1.751,2.508-4.834,3.658-7.812,4.259a34.655,34.655,0,0,1-14.658-.235c-6.793-1.594-13.482-5.3-20.354-4.076" transform="translate(-104.565 -210.076)"/></g><g class="l"><path class="e" d="M119.8,262.268a20.547,20.547,0,0,1,11.209-5.226c3.527-.6,11.1-1.2,14.292-2.822,5.435-2.77,8.779-9.3,11.131-12.62,2.038,2.665,3.083,8.387,5.7,10.53s5.147,4.494,6.637,7.5,1.724,6.846-.183,9.615c-1.751,2.508-4.834,3.658-7.812,4.259a34.655,34.655,0,0,1-14.658-.235c-6.793-1.594-13.482-5.3-20.354-4.076" transform="translate(-115.424 -217.98)"/></g><g class="l"><path class="m" d="M221.109,273.853c-2.639-.941-2.9-1.7-5.147-3.867a34.108,34.108,0,0,1-5.67-8.257,57.054,57.054,0,0,1-2.4-6.506A24.224,24.224,0,0,1,207,251.2s5.8,15.912,12.071,18.107c3.371,1.176.392,3.031,3.658,4.729" transform="translate(-179.84 -225.072)"/></g><g class="l"><path class="n" d="M111.786,233.177a4.048,4.048,0,0,0,.34,3.214,1.787,1.787,0,0,0,.888.81,1.7,1.7,0,0,0,1.62-.392,6.9,6.9,0,0,0,1.124-1.333,12.408,12.408,0,0,1,6.114-4.363,22.115,22.115,0,0,0,3.762-1.907l-.078-3.606s-2.587,1.071-3.344,1.411a47.577,47.577,0,0,1-5.67,2.116,8.492,8.492,0,0,0-3.24,1.463A6.641,6.641,0,0,0,111.786,233.177Z" transform="translate(-109.369 -206.161)"/></g><g class="l"><path class="m" d="M105.472,150.886a19.35,19.35,0,0,0-7.185,11.287c-.235,1.15-.287,2.561.627,3.292a2.374,2.374,0,0,0,2.325.157,7.055,7.055,0,0,0,1.986-1.411,52.91,52.91,0,0,1,14.109-8.753c3.292-1.385,6.741-2.456,9.72-4.416,3.684-2.4,6.428-6.036,8.7-9.8s4.154-7.786,6.584-11.444q-19.675,11.993-39.323,23.986" transform="translate(-99.423 -135.391)"/></g></g><ellipse class="o" cx="21.922" cy="26.207" rx="21.922" ry="26.207" transform="translate(34.536 7.423) rotate(-9.747)"/><ellipse class="p" cx="19.91" cy="24.195" rx="19.91" ry="24.195" transform="translate(37.303 8.985) rotate(-9.747)"/><g transform="translate(35.833 0.651)"><ellipse class="i" cx="18.238" cy="22.836" rx="18.238" ry="22.836" transform="translate(3.9 9.313) rotate(-9.747)"/><g class="q" transform="translate(3.9 3.138)"><path class="m" d="M239.164,235.451a12.03,12.03,0,0,0,8.857,4.154,9.211,9.211,0,0,0,8.178-4.964,15.585,15.585,0,0,0,1.15-5.461,17.763,17.763,0,0,1,1.045-5.487,5.718,5.718,0,0,1,4.024-3.553,6.1,6.1,0,0,1,4.154,1.071c4.207,2.691,5.931,8.283,4.991,13.195s-4.1,9.145-7.839,12.437a27.258,27.258,0,0,1-14.4,7.055c-5.382.705-16.591-4.86-20.328-8.805" transform="translate(-225.844 -196.509)"/></g><g class="q" transform="translate(3.9 3.138)"><path class="e" d="M209.282,144.553a14.157,14.157,0,0,1,4.834-13.613c4.181-3.423,10.9-4.39,15.442-1.724,2.3,1.359,3.971,3.475,6.48,4.52a9.158,9.158,0,0,0,7.577-.444,7.5,7.5,0,0,0,4.05-5.8c.314-3.971-3.162-7.29-7.029-9.171-6.3-3.083-13.979-3.684-21.295-2.717-9.667,1.254-19.23,5.278-25.632,11.993-6.375,6.715-9.145,16.252-5.853,24.169" transform="translate(-194.42 -119.016)"/></g><g class="q" transform="translate(3.9 3.138)"><path class="f" d="M222.33,189.5l18.185-.6,3.371,18.917-16.33,9.171C227.556,216.962,213.473,202.33,222.33,189.5Z" transform="translate(-218.756 -173.474)"/><g class="r" transform="translate(0.649 15.426)"><path class="e" d="M204.5,227.643c.993,2.038,3.527,2.743,5.774,3.057,9.432,1.306,19.152-.418,28.036-3.867a8.761,8.761,0,0,1,3.318-.836,2.067,2.067,0,0,1,1.881.993,2.607,2.607,0,0,1-.34,2.169A25.926,25.926,0,0,1,236.115,237a41.46,41.46,0,0,1-13.77,7.525,25,25,0,0,1-15.52-.157" transform="translate(-208.394 -216.303)"/></g><g class="r" transform="translate(0.649 15.426)"><path class="e" d="M190.9,234.945a6.64,6.64,0,0,0,2.8,1.96c5.8,2.482,12.542,1.986,18.551.1,6.036-1.881,11.549-5.069,17.192-7.943a4.649,4.649,0,0,1,2.639-.732,1.451,1.451,0,0,1,.914.444,1.807,1.807,0,0,1,.026,1.751,10.884,10.884,0,0,1-2.064,3.135,36.6,36.6,0,0,1-7.029,5.8c-8.1,5.487-17.271,9.955-27.043,10.53" transform="translate(-198.348 -218.014)"/></g><g class="r" transform="translate(0.649 15.426)"><path class="m" d="M224.814,196.634c-1.463-.235-2.926-.444-4.39-.679-3.893-.6-8-.392-11.941-.549-6.375-.261-12.489-.157-18.865-.026-.183,0-.418-.026-.5-.183s.026-.34.131-.47a5.068,5.068,0,0,1,3.371-1.411,47.065,47.065,0,0,1,6.924-.209c8.91.183,17.846.6,26.729,1.254" transform="translate(-197.015 -191.983)"/></g></g><g class="q" transform="translate(0 7.395) rotate(-9.747)"><ellipse class="o" cx="7.316" cy="9.876" rx="7.316" ry="9.876" transform="translate(15.698 15.138)"/></g><g class="q" transform="translate(3.9 3.138)"><ellipse class="p" cx="5.774" cy="7.812" rx="5.774" ry="7.812" transform="translate(16.237 18.245) rotate(-9.747)"/><g class="s" transform="translate(16.237 16.29)"><path class="e" d="M273.478,192.45c.47.523,1.15,1.019,1.8.81a1.505,1.505,0,0,0,1.019-1.7,13.612,13.612,0,0,1,.183-8.283,5.14,5.14,0,0,1,7.055-3.188,20.583,20.583,0,0,1,3.815,2.456.775.775,0,0,0,.653.183.87.87,0,0,0,.444-.366,6.357,6.357,0,0,0,.679-4.285,11.534,11.534,0,0,0-1.672-5.1,6.522,6.522,0,0,0-4.337-2.979c-4.625-.679-7.891,3.841-10.608,6.846-2.273,2.508-2.848,4.912-2.4,8.283A13.335,13.335,0,0,0,273.478,192.45Z" transform="translate(-272.346 -175.756)"/></g></g></g><g transform="translate(2.638 31.294)"><path class="o" d="M85.912,235.541s-1.646-1.019-5.147.157-7.185,7.159-5.3,14.214c1.568,5.827,7.185,8.648,10.321,8.57,2.561-.078,6.14-2.9,6.14-2.9a13.087,13.087,0,0,1-8.126-8.57A11.5,11.5,0,0,1,85.912,235.541Z" transform="translate(-74.951 -235.132)"/><g class="t"><path class="e" d="M66.387,297.861a6.45,6.45,0,0,0,4.337,1.777A18.974,18.974,0,0,0,84.6,295.3a19.491,19.491,0,0,1,2.4,5.435,6.467,6.467,0,0,1,.052,4.154c-.679,1.62-2.352,2.561-3.945,3.344-1.855.914-3.736,1.777-5.67,2.561a10.629,10.629,0,0,1-5.252,1.15,7.652,7.652,0,0,1-4.729-2.822,20.986,20.986,0,0,1-2.8-4.886c-.314-.679-.6-1.568-.078-2.09" transform="translate(-67.08 -279.579)"/></g><g class="t"><path class="n" d="M94.565,249.154c.235.967,1.228,2.848,1.515,2.508s-.47-2.482-.34-4.337A12.16,12.16,0,0,1,97,242.857c.314-.6,1.489-2.848.026-2.3-1.1.418-1.934,2.587-2.273,3.606A9.267,9.267,0,0,0,94.565,249.154Z" transform="translate(-89.248 -239.077)"/></g><g class="t"><path class="u" d="M65.254,238.286a10.546,10.546,0,0,1,5.356-5.879,28.615,28.615,0,0,1,7.786-2.378,2.243,2.243,0,0,0,.914-.314,1.971,1.971,0,0,0,.549-.679,7.4,7.4,0,0,0,.888-4.207,3.342,3.342,0,0,0-.914-2.195,3.665,3.665,0,0,0-3.423-.392c-5.017,1.306-8.857,5.252-12.411,9.04" transform="translate(-66.861 -225.439)"/></g></g><path class="n" d="M302,252.175a13.276,13.276,0,0,0,12.228-4.625c5.33-6.14,2.874-15.05,2.874-15.05s-.209,10.713-4.912,14.972A18.047,18.047,0,0,1,302,252.175Z" transform="translate(-240.038 -201.893)"/></g><path class="v" d="M331.9,45.522l11-13.09,2.508,5.853L371.3,17.8,343.318,47.743,340.13,41.89Z" transform="translate(-262.125 -17.8)"/><path class="w" d="M338.3,323l11.575,10.686,2.9-5.565,22.941,15.808L351.678,320.1l-4,5.983Z" transform="translate(-266.853 -241.114)"/><path class="x" d="M388.9,266.429h28.558L390.311,261.7Z" transform="translate(-304.232 -197.973)"/><path class="y" d="M382,141.694l1.672,5.147L411.238,134.3Z" transform="translate(-299.135 -103.861)"/><path class="z" d="M403.5,208.1l.287,4.572,14.475-1.934Z" transform="translate(-315.017 -158.378)"/></g></svg>