<svg xmlns="http://www.w3.org/2000/svg" width="29.376" height="26.978" viewBox="0 0 29.376 26.978"><defs><style>.a{fill:#fe350c;stroke:#fe350c;}</style></defs><g transform="translate(0.501 1.605)"><path class="a" d="M208.567-1.105H198.283a3.1,3.1,0,0,0-3.072,3.09V4.716a.766.766,0,0,0,1.533,0V1.985a1.562,1.562,0,0,1,1.54-1.558h10.284a1.537,1.537,0,0,1,1.51,1.558V21.8a1.521,1.521,0,0,1-1.5,1.539H198.283a1.545,1.545,0,0,1-1.54-1.539V19.127a.766.766,0,1,0-1.533,0V21.8a3.08,3.08,0,0,0,3.072,3.072h10.284a3.055,3.055,0,0,0,3.043-3.067V1.985A3.071,3.071,0,0,0,208.567-1.105Zm0,0" transform="translate(-183.235 0)"/><path class="a" d="M2.629,111.2H20.765a.766.766,0,1,0,0-1.533H2.459l3.932-4.545a.775.775,0,0,0-.076-1.088.766.766,0,0,0-1.081.072h0L.278,109.812a.764.764,0,0,0,.036,1.208l4.956,4.956a.766.766,0,0,0,1.084,0,.749.749,0,0,0,.01-1.06l-.01-.01Zm0,0" transform="translate(0 -98.509)"/></g></svg>