<svg xmlns="http://www.w3.org/2000/svg" width="47.389" height="44.475" viewBox="0 0 47.389 44.475">
  <g id="meeting" transform="translate(-0.033 -15.8)">
    <circle id="Ellipse_34" data-name="Ellipse 34" cx="4.165" cy="4.165" r="4.165" transform="translate(19.561 15.8)" fill="#ff4646"/>
    <path id="Path_127" data-name="Path 127" d="M153.784,77.3a6.935,6.935,0,0,1-13.533,0,5.556,5.556,0,0,0-4.351,5.415v5.563a2.777,2.777,0,0,0,5.554,0V85.5h11.117v2.777a2.777,2.777,0,0,0,5.554,0V82.715A5.546,5.546,0,0,0,153.784,77.3Zm14.773,28.269a4.168,4.168,0,0,0-4.165,7.22,4.274,4.274,0,0,0,5.785-1.527A4.2,4.2,0,0,0,168.557,105.569Z" transform="translate(-123.291 -55.807)" fill="#ff4646"/>
    <path id="Path_128" data-name="Path 128" d="M42.721,249.333l-4.813-2.777a2.778,2.778,0,0,0-2.777,4.813l2.407,1.388-5.563,9.627L29.567,261a2.778,2.778,0,1,0-2.777,4.813l4.813,2.777a5.57,5.57,0,0,0,6.868-1.055,6.934,6.934,0,0,1,6.766-11.719,5.554,5.554,0,0,0-2.518-6.48ZM7.879,260.348a4.208,4.208,0,0,0-7.313,4.165,4.282,4.282,0,0,0,5.785,1.527A4.155,4.155,0,0,0,7.879,260.348Z" transform="translate(0 -209.059)" fill="#ff4646"/>
    <path id="Path_129" data-name="Path 129" d="M40.587,262.014a2.784,2.784,0,0,0-3.8-1.018l-2.407,1.388-5.563-9.627,2.407-1.388a2.778,2.778,0,0,0-2.777-4.813l-4.813,2.777a5.566,5.566,0,0,0-2.518,6.48,6.934,6.934,0,0,1,6.766,11.719,5.546,5.546,0,0,0,6.868,1.055l4.813-2.777A2.784,2.784,0,0,0,40.587,262.014Z" transform="translate(-18.906 -209.059)" fill="#ff4646"/>
  </g>
</svg>
