<svg xmlns="http://www.w3.org/2000/svg" width="22.978" height="22.978" viewBox="0 0 22.978 22.978"><defs><style>.a{fill:#4942ad;}.b{fill:#ff7a4e;}</style></defs><g transform="translate(-0.001)"><g transform="translate(0.001)"><path class="a" d="M8.347,0H1.75A1.751,1.751,0,0,0,0,1.749v6.6A1.751,1.751,0,0,0,1.75,10.1h6.6A1.751,1.751,0,0,0,10.1,8.346v-6.6A1.751,1.751,0,0,0,8.347,0Z" transform="translate(-0.001)"/><path class="b" d="M174.852,0h-6.6a1.751,1.751,0,0,0-1.749,1.749v6.6a1.751,1.751,0,0,0,1.749,1.749h6.6A1.751,1.751,0,0,0,176.6,8.346v-6.6A1.751,1.751,0,0,0,174.852,0Z" transform="translate(-153.624)"/><path class="a" d="M8.347,166.507H1.75A1.751,1.751,0,0,0,0,168.256v6.6A1.751,1.751,0,0,0,1.75,176.6h6.6a1.751,1.751,0,0,0,1.749-1.749v-6.6A1.751,1.751,0,0,0,8.347,166.507Z" transform="translate(-0.001 -153.625)"/><path class="a" d="M174.852,166.507h-6.6a1.751,1.751,0,0,0-1.749,1.749v6.6a1.751,1.751,0,0,0,1.749,1.749h6.6a1.751,1.751,0,0,0,1.749-1.749v-6.6A1.751,1.751,0,0,0,174.852,166.507Z" transform="translate(-153.624 -153.625)"/></g></g></svg>