<?xml version="1.0" encoding="utf-8"?>
<!-- Generator: Adobe Illustrator 25.2.0, SVG Export Plug-In . SVG Version: 6.00 Build 0)  -->
<svg version="1.1" id="Layer_1" xmlns="http://www.w3.org/2000/svg" xmlns:xlink="http://www.w3.org/1999/xlink" x="0px" y="0px"
	 viewBox="0 0 937 937" style="enable-background:new 0 0 937 937;" xml:space="preserve">
<style type="text/css">
	.st0{fill:#FFFFFF;}
</style>
<g id="surface1">
	<path class="st0" d="M701.7,363.3l-21.1,23l95.8,87.8c22.5,20.7,35.4,50,35.4,80.6V937h31.2V554.7c0-39.4-16.6-77-45.6-103.6
		L701.7,363.3z"/>
	<path class="st0" d="M577.6,0h-406c-43.1,0.1-78,35-78.1,78.1v780.8c0.1,43.1,35,78,78.1,78.1H562v-27.9
		c-0.1-70.3,20.8-139.2,59.8-197.6c4.1-6.2,3.3-14.4-2-19.7L510.5,582.4c-10.1-10.1-15.5-24-14.8-38.3c0.7-14.3,7.4-27.6,18.5-36.7
		c21.3-16.3,51.4-13.9,69.9,5.4L738.3,667l22.1-22.1L655.7,540.1v-462C655.6,35,620.7,0.1,577.6,0z M624.4,508.9l-18.2-18.2
		c-30-30.6-78.1-33.8-111.9-7.4c-17.8,14.7-28.7,36.2-29.8,59.3c-1.1,23.1,7.5,45.5,23.9,61.9l100.4,100.4
		c-37.4,60.3-57.5,129.9-58,200.9H171.5c-25.9,0-46.8-21-46.8-46.8v-46.9h390.4v-31.2H124.7V124.9h499.7V508.9z M624.4,93.7H124.7
		V78.1c0-25.9,21-46.9,46.8-46.9h406c25.9,0,46.8,21,46.8,46.9V93.7z"/>
	<path class="st0" d="M187.2,281.1h62.5c17.3,0,31.2-14,31.2-31.2v-62.5c0-17.3-14-31.2-31.2-31.2h-62.5c-17.3,0-31.2,14-31.2,31.2
		v62.5C155.9,267.1,169.9,281.1,187.2,281.1z M187.2,187.4h62.5v62.5h-62.5V187.4z"/>
	<path class="st0" d="M343.3,281.1h62.5c17.3,0,31.2-14,31.2-31.2v-62.5c0-17.3-14-31.2-31.2-31.2h-62.5c-17.3,0-31.2,14-31.2,31.2
		v62.5C312.1,267.1,326.1,281.1,343.3,281.1z M343.3,187.4h62.5v62.5h-62.5V187.4z"/>
	<path class="st0" d="M499.5,281.1H562c17.3,0,31.2-14,31.2-31.2v-62.5c0-17.3-14-31.2-31.2-31.2h-62.5c-17.3,0-31.2,14-31.2,31.2
		v62.5C468.3,267.1,482.2,281.1,499.5,281.1z M499.5,187.4H562v62.5h-62.5V187.4z"/>
	<path class="st0" d="M187.2,437.3h62.5c17.3,0,31.2-14,31.2-31.2v-62.5c0-17.3-14-31.2-31.2-31.2h-62.5c-17.3,0-31.2,14-31.2,31.2
		V406C155.9,423.3,169.9,437.3,187.2,437.3z M187.2,343.6h62.5V406h-62.5V343.6z"/>
	<path class="st0" d="M187.2,593.4h62.5c17.3,0,31.2-14,31.2-31.2v-62.5c0-17.3-14-31.2-31.2-31.2h-62.5c-17.3,0-31.2,14-31.2,31.2
		v62.5C155.9,579.5,169.9,593.4,187.2,593.4z M187.2,499.7h62.5v62.5h-62.5V499.7z"/>
	<path class="st0" d="M343.3,437.3h62.5c17.3,0,31.2-14,31.2-31.2v-62.5c0-17.3-14-31.2-31.2-31.2h-62.5c-17.3,0-31.2,14-31.2,31.2
		V406C312.1,423.3,326.1,437.3,343.3,437.3z M343.3,343.6h62.5V406h-62.5V343.6z"/>
	<path class="st0" d="M499.5,437.3H562c17.3,0,31.2-14,31.2-31.2v-62.5c0-17.3-14-31.2-31.2-31.2h-62.5c-17.3,0-31.2,14-31.2,31.2
		V406C468.3,423.3,482.2,437.3,499.5,437.3z M499.5,343.6H562V406h-62.5V343.6z"/>
	<path class="st0" d="M343.3,593.4h62.5c17.3,0,31.2-14,31.2-31.2v-62.5c0-17.3-14-31.2-31.2-31.2h-62.5c-17.3,0-31.2,14-31.2,31.2
		v62.5C312.1,579.5,326.1,593.4,343.3,593.4z M343.3,499.7h62.5v62.5h-62.5V499.7z"/>
	<path class="st0" d="M187.2,749.6h62.5c17.3,0,31.2-14,31.2-31.2v-62.5c0-17.3-14-31.2-31.2-31.2h-62.5c-17.3,0-31.2,14-31.2,31.2
		v62.5C155.9,735.6,169.9,749.6,187.2,749.6z M187.2,655.9h62.5v62.5h-62.5V655.9z"/>
	<path class="st0" d="M343.3,749.6h62.5c17.3,0,31.2-14,31.2-31.2v-62.5c0-17.3-14-31.2-31.2-31.2h-62.5c-17.3,0-31.2,14-31.2,31.2
		v62.5C312.1,735.6,326.1,749.6,343.3,749.6z M343.3,655.9h62.5v62.5h-62.5V655.9z"/>
	<path class="st0" d="M358.9,843.3h31.2v31.2h-31.2V843.3z"/>
</g>
</svg>
