<svg xmlns="http://www.w3.org/2000/svg" width="16.691" height="19.806" viewBox="0 0 16.691 19.806"><defs><style>.a{fill:none;stroke:#002d71;}</style></defs><g transform="translate(0.509 0.5)"><g transform="translate(0)"><path class="a" d="M58.291,15.862,56.945,13.62A6.662,6.662,0,0,1,56,10.192V8.228a5.492,5.492,0,0,0-3.918-5.254V1.567a1.567,1.567,0,0,0-3.134,0V2.974a5.492,5.492,0,0,0-3.918,5.254v1.964a6.666,6.666,0,0,1-.949,3.427l-1.345,2.243a.392.392,0,0,0,.335.594H57.955a.392.392,0,0,0,.336-.593Z" transform="translate(-42.675 0)"/></g><g transform="translate(5.368 17.239)"><g transform="translate(0)"><path class="a" d="M188.815,469.333a2.726,2.726,0,0,0,4.935,0Z" transform="translate(-188.815 -469.333)"/></g></g></g></svg>