<svg xmlns="http://www.w3.org/2000/svg" width="36.627" height="31.333" viewBox="0 0 36.627 31.333">
  <g id="online-learning" transform="translate(0 -37)">
    <g id="Group_77" data-name="Group 77" transform="translate(0 37)">
      <path id="Path_103" data-name="Path 103" d="M35.089,63.683H34.014a1.955,1.955,0,0,0,.216-.895v-18.6a1.97,1.97,0,0,0-1.967-1.967h-2.9v-.655a.938.938,0,0,0-.937-.937h-.888V37.937a.937.937,0,0,0-1.244-.886l-1.69.584a.537.537,0,0,0,.351,1.014l1.51-.522v12.9L18.85,53.666v-12.9L22.794,39.4a.537.537,0,1,0-.351-1.014l-4.13,1.428L10.33,37.051a.937.937,0,0,0-1.244.886v2.692H8.2a.938.938,0,0,0-.937.937v.656h-2.9A1.97,1.97,0,0,0,2.4,44.19V46.1a.537.537,0,0,0,1.073,0V44.19a.9.9,0,0,1,.894-.894h2.9v1.073H5.079a.537.537,0,0,0-.537.537V62.074a.536.536,0,0,0,.537.537H31.548a.536.536,0,0,0,.537-.537V44.9a.536.536,0,0,0-.537-.537H29.366V43.295h2.9a.9.9,0,0,1,.894.894v18.6a.9.9,0,0,1-.894.894H4.364a.9.9,0,0,1-.894-.894v-14.4a.537.537,0,1,0-1.073,0v14.4a1.954,1.954,0,0,0,.216.894H1.538A1.54,1.54,0,0,0,0,65.221v1.574a1.54,1.54,0,0,0,1.538,1.538H22.869a.537.537,0,0,0,0-1.073H1.538a.466.466,0,0,1-.465-.465V65.221a.466.466,0,0,1,.465-.465H14.7v.377a1.342,1.342,0,0,0,1.34,1.34h4.545a1.341,1.341,0,0,0,1.34-1.34v-.377H35.089a.466.466,0,0,1,.465.465V66.8a.466.466,0,0,1-.465.465H25.211a.537.537,0,0,0,0,1.073h9.877A1.54,1.54,0,0,0,36.627,66.8V65.221a1.54,1.54,0,0,0-1.538-1.538ZM26.91,52.014a.938.938,0,0,0,.631-.886V41.7h.752v12.18H21.507ZM10.159,38.128l7.618,2.634v12.9l-7.618-2.634ZM8.334,41.7h.752v9.426a.938.938,0,0,0,.631.886l5.4,1.869H8.334Zm22.677,3.739v16.1H5.616v-16.1H7.261v8.577a.938.938,0,0,0,.937.937H28.429a.938.938,0,0,0,.937-.937V45.441ZM20.853,65.133a.267.267,0,0,1-.267.267H16.041a.267.267,0,0,1-.267-.267v-.377h5.079Z" transform="translate(0 -37)" fill="#029acb"/>
      <path id="Path_104" data-name="Path 104" d="M164.62,309.387H150.526a.537.537,0,1,0,0,1.073H164.62a.537.537,0,1,0,0-1.073Z" transform="translate(-139.259 -289.901)" fill="#029acb"/>
      <path id="Path_105" data-name="Path 105" d="M159.666,341.2h-9.141a.537.537,0,1,0,0,1.073h9.141a.537.537,0,1,0,0-1.073Z" transform="translate(-139.259 -319.44)" fill="#029acb"/>
    </g>
  </g>
</svg>
