<svg xmlns="http://www.w3.org/2000/svg" width="55.813" height="59.818" viewBox="0 0 55.813 59.818"><defs><style>.a{fill:#fff;}</style></defs><g transform="translate(-48 -18.146)"><path class="a" d="M98.072,111.045H50V85.007a3.008,3.008,0,0,1,3-3H75.039V80H53.007A5.013,5.013,0,0,0,48,85.007v31.045a5.013,5.013,0,0,0,5.007,5.007h12.5l-2.146,5.007H59.016a3,3,0,0,0,0,6.009H89.059a3,3,0,1,0,0-6.009H84.712l-2.146-5.007h12.5a5.013,5.013,0,0,0,5.007-5.007V99.027h-2Zm-8.012,18.026a1,1,0,0,1-1,1H59.016a1,1,0,0,1,0-2H89.059A1,1,0,0,1,90.061,129.071Zm-7.527-3H65.542l2.146-5.007h12.7Zm12.535-7.01H53.007a3.008,3.008,0,0,1-3-3v-3H98.072v3a3.008,3.008,0,0,1-3,3Z" transform="translate(0 -54.111)"/><path class="a" d="M248,360h2v2h-2Z" transform="translate(-174.964 -299.06)"/><path class="a" d="M301.3,29.542a1,1,0,0,0,.283-1.12l-1.2-3.115a1,1,0,0,0-.96-.642l-2.726.069-1.2-1.261.209-2.719a1,1,0,0,0-.592-.992l-3.05-1.355a1,1,0,0,0-1.133.225l-1.878,1.977-1.739-.044-1.775-2.07a1,1,0,0,0-1.12-.283l-3.115,1.2a1,1,0,0,0-.642.96l.069,2.726-1.261,1.2-2.719-.209a1,1,0,0,0-.992.592l-1.355,3.05a1,1,0,0,0,.225,1.133l1.977,1.879-.044,1.739-2.07,1.775a1,1,0,0,0-.283,1.12l1.2,3.115a1.006,1.006,0,0,0,.96.642l2.726-.069,1.2,1.261-.209,2.719a1,1,0,0,0,.592.992l3.05,1.355a1,1,0,0,0,1.133-.225l1.878-1.977,1.739.044,1.775,2.07a1,1,0,0,0,1.12.283l3.115-1.2a1,1,0,0,0,.642-.96L295.06,40.7l1.261-1.2,2.719.209a1,1,0,0,0,.992-.592l1.355-3.05a1,1,0,0,0-.225-1.133l-1.977-1.879.044-1.739ZM297.483,34.2l1.787,1.7-.782,1.758-2.458-.189a1,1,0,0,0-.766.273l-1.906,1.811a1,1,0,0,0-.311.751l.063,2.465-1.8.691-1.6-1.872a1,1,0,0,0-.735-.349l-2.629-.067h-.025a1,1,0,0,0-.726.312l-1.7,1.787-1.757-.782.189-2.458a1,1,0,0,0-.272-.766l-1.811-1.906a1,1,0,0,0-.751-.311l-2.465.063-.691-1.8,1.871-1.6a1,1,0,0,0,.349-.735l.067-2.629a1,1,0,0,0-.311-.751l-1.788-1.7.782-1.758,2.458.189a1,1,0,0,0,.766-.273l1.906-1.811a1,1,0,0,0,.311-.751l-.063-2.465,1.8-.691,1.6,1.872a1,1,0,0,0,.734.349l2.629.067a.988.988,0,0,0,.751-.311l1.7-1.787,1.758.782-.189,2.458a1,1,0,0,0,.273.766l1.811,1.906a1,1,0,0,0,.751.311l2.465-.063.691,1.8-1.871,1.6a1,1,0,0,0-.349.735l-.067,2.629A1,1,0,0,0,297.483,34.2Z" transform="translate(-197.837)"/><path class="a" d="M331.615,71.537a7.128,7.128,0,1,0,9.212,4.094,7.128,7.128,0,0,0-9.212-4.094Zm4.4,11.436a5.125,5.125,0,1,1,2.943-6.624A5.125,5.125,0,0,1,336.014,82.973Z" transform="translate(-244.113 -46.292)"/><path class="a" d="M92.714,128.352l-2.3-2.3,2.3-2.3L91.3,122.343l-3,3a1,1,0,0,0,0,1.416l3,3Z" transform="translate(-34.993 -91.153)"/><path class="a" d="M179.759,129.768l3-3a1,1,0,0,0,0-1.416l-3-3-1.416,1.416,2.3,2.3-2.3,2.3Z" transform="translate(-114.027 -91.153)"/><path class="a" d="M0,0H8.258V2H0Z" transform="translate(59.05 38.676) rotate(-75.936)"/><path class="a" d="M88,200h2v2H88Z" transform="translate(-34.993 -159.089)"/><path class="a" d="M120,200h19.027v2H120Z" transform="translate(-62.987 -159.089)"/><path class="a" d="M88,232h2v2H88Z" transform="translate(-34.993 -187.083)"/><path class="a" d="M120,232h22.032v2H120Z" transform="translate(-62.987 -187.083)"/><path class="a" d="M88,264h2v2H88Z" transform="translate(-34.993 -215.077)"/><path class="a" d="M120,264h25.036v2H120Z" transform="translate(-62.987 -215.077)"/><path class="a" d="M88,296h2v2H88Z" transform="translate(-34.993 -243.072)"/><path class="a" d="M120,296h30.043v2H120Z" transform="translate(-62.987 -243.072)"/><path class="a" d="M376,296h2v2h-2Z" transform="translate(-286.941 -243.072)"/><path class="a" d="M368,264h2v2h-2Z" transform="translate(-279.942 -215.077)"/><path class="a" d="M336,264h2v2h-2Z" transform="translate(-251.948 -215.077)"/><path class="a" d="M408,296h2v2h-2Z" transform="translate(-314.935 -243.072)"/></g></svg>