<?xml version="1.0" encoding="utf-8"?>
<!-- Generator: Adobe Illustrator 25.0.0, SVG Export Plug-In . SVG Version: 6.00 Build 0)  -->
<svg version="1.1" id="Layer_1" xmlns="http://www.w3.org/2000/svg" xmlns:xlink="http://www.w3.org/1999/xlink" x="0px" y="0px"
	 viewBox="0 0 1867.4 875" style="enable-background:new 0 0 1867.4 875;" xml:space="preserve">
<style type="text/css">
	.st0{fill-rule:evenodd;clip-rule:evenodd;fill:#FAF9F4;}
</style>
<desc>Created with Sketch.</desc>
<g id="Page-1">
	<g id="site1" transform="translate(-369.000000, -834.000000)">
		<path id="Path-5" class="st0" d="M1169.7,933.1c0-89.3,447.6-200,479.4,101.3s351.8,74.7,459.8,95.1
			c72,13.6,107.8,128.8,107.5,345.6c-15.4,118.7-77.3,191.4-185.7,218.1c-162.5,40.1-192-5.9-406.1-51.8s-454.9,145.8-454.9-130.2
			S1169.7,1022.4,1169.7,933.1z"/>
	</g>
</g>
<desc>Created with Sketch.</desc>
<g id="Page-1_1_">
	<g id="site1_1_" transform="translate(-369.000000, -834.000000)">
		<path id="Path-5_1_" class="st0" d="M1624.7,1570c0,89.3-447.6,200-479.4-101.3c-31.8-301.3-351.8-74.7-459.8-95.1
			c-72-13.6-107.8-128.8-107.5-345.6c15.4-118.7,77.3-191.4,185.7-218.1c162.5-40.1,192,5.9,406.1,51.8
			c214.1,45.9,454.9-145.8,454.9,130.2C1624.7,1267.9,1624.7,1480.7,1624.7,1570z"/>
	</g>
</g>
</svg>
