<svg xmlns="http://www.w3.org/2000/svg" width="120.29" height="133.888" viewBox="0 0 120.29 133.888"><defs><style>.a{opacity:0.046;}</style></defs><g class="a" transform="translate(-87.801)"><g transform="translate(174.096 103.554)"><g transform="translate(0)"><path d="M1204.81,1337.273a2.615,2.615,0,1,0,2.615,2.615A2.616,2.616,0,0,0,1204.81,1337.273Z" transform="translate(-1202.195 -1337.273)"/></g></g><g transform="translate(87.801)"><g transform="translate(0)"><path d="M183.149,95.1,170.72,90.956l-4.462-8.924A28.641,28.641,0,0,0,174.01,66.88l.556-3.335h4.759a7.854,7.854,0,0,0,7.845-7.845V39.225a39.225,39.225,0,0,0-78.45,0V55.7a7.858,7.858,0,0,0,5.23,7.4V66.16A7.854,7.854,0,0,0,121.8,74h2.3a28.369,28.369,0,0,0,4.386,6.792c.37.426.757.838,1.152,1.24l-4.46,8.919L112.742,95.1C98.29,99.917,87.8,115.131,87.8,131.273a2.615,2.615,0,0,0,2.615,2.615h115.06a2.615,2.615,0,0,0,2.615-2.615C208.091,115.131,197.6,99.917,183.149,95.1Zm-1.209-39.4a2.618,2.618,0,0,1-2.615,2.615h-3.991c.665-5.149,1.108-10.628,1.286-16.025.005-.152.009-.3.014-.45h5.306Zm-65.375,2.615a2.618,2.618,0,0,1-2.615-2.615V41.84h5.308q.013.409.028.823c0,.009,0,.019,0,.028v0c.183,5.249.62,10.586,1.27,15.621h-3.992Zm5.23,10.46a2.618,2.618,0,0,1-2.615-2.615V63.545h2.144l.556,3.336c.106.634.237,1.266.388,1.894ZM119.185,36.61H114.05a34,34,0,0,1,67.791,0h-5.135a26.486,26.486,0,0,0-26.42-26.15h-4.681A26.486,26.486,0,0,0,119.185,36.61Zm26.42-20.92h4.681a21.264,21.264,0,0,1,21.195,21.289c0,.823-.007,1.539-.02,2.191,0,.008,0,.017,0,.026l-3.271-.467a42.019,42.019,0,0,1-23.624-11.812,2.616,2.616,0,0,0-1.849-.766,23.658,23.658,0,0,0-18.189,8.605A21.257,21.257,0,0,1,145.605,15.69ZM127.69,68.775c-1.309-4.355-2.807-17.168-3.138-25.379l3.52-4.693a18.407,18.407,0,0,1,13.611-7.293,47.3,47.3,0,0,0,25.767,12.5l3.85.55c-.257,5.461-.783,10.942-1.537,15.982v.005c-.24,1.621-.428,2.663-.911,5.576-1.385,8.307-7.583,15.818-15.765,17.864A20.575,20.575,0,0,1,129.99,74h5.331a7.857,7.857,0,0,0,7.4,5.23h5.23a7.845,7.845,0,0,0,0-15.69h-5.23a7.849,7.849,0,0,0-7.4,5.23Zm14.806,20.4a26.229,26.229,0,0,0,9.726.219L147.6,94.282Zm1.51,8.907-8.294,8.771a99.634,99.634,0,0,1-5.855-13.576l3.115-6.229Zm18.47-11.92,3.557,7.115a99.608,99.608,0,0,1-5.856,13.58L151.3,97.981ZM140.1,71.39a2.615,2.615,0,0,1,2.615-2.615h5.23a2.615,2.615,0,1,1,0,5.23h-5.23A2.618,2.618,0,0,1,140.1,71.39ZM93.135,128.658c1.036-12.954,9.658-24.729,21.26-28.6L125.4,96.391a104.829,104.829,0,0,0,7.443,16.145l.015.026h0a104.856,104.856,0,0,0,7.158,10.93l3.217,5.164Zm54.81-2.331-3.546-5.694q-.06-.1-.127-.186a99.7,99.7,0,0,1-5.892-8.8l9.326-9.862,9.827,9.827a99.6,99.6,0,0,1-5.913,8.838C151.492,120.618,151.673,120.349,147.946,126.327Zm4.71,2.331,3.217-5.164a104.818,104.818,0,0,0,7.208-11.018l.038-.07,0-.008a104.745,104.745,0,0,0,7.365-16.007L181.5,100.06c11.6,3.869,20.224,15.644,21.261,28.6Z" transform="translate(-87.801)"/></g></g><g transform="translate(183.285 108.546)"><g transform="translate(0)"><path d="M1332.471,1411.264a26.148,26.148,0,0,0-7.4-8.987,2.615,2.615,0,1,0-3.189,4.145,20.885,20.885,0,0,1,5.913,7.179,2.615,2.615,0,0,0,4.679-2.337Z" transform="translate(-1320.859 -1401.734)"/></g></g></g></svg>