<svg xmlns="http://www.w3.org/2000/svg" width="29.896" height="29.896" viewBox="0 0 29.896 29.896"><defs><style>.a{fill:#fff;}</style></defs><path class="a" d="M28.145,17.065V2.686a.876.876,0,0,0-.876-.876H22.831V.876a.876.876,0,0,0-1.752,0V1.81h-3.5V.876a.876.876,0,1,0-1.752,0V1.81h-3.5V.876a.876.876,0,0,0-1.752,0V1.81h-3.5V.876a.876.876,0,1,0-1.752,0V1.81H.876A.876.876,0,0,0,0,2.686V25.517a.876.876,0,0,0,.876.876H15.462a7.88,7.88,0,1,0,12.682-9.328ZM5.314,3.562v.876a.876.876,0,1,0,1.752,0V3.562h3.5v.876a.876.876,0,0,0,1.752,0V3.562h3.5v.876a.876.876,0,1,0,1.752,0V3.562h3.5v.876a.876.876,0,1,0,1.752,0V3.562h3.562v3.5H1.752v-3.5ZM1.752,24.641V8.817H26.393v6.645A7.874,7.874,0,0,0,15.4,17.728a.871.871,0,0,0-.394-.094H13.255a.876.876,0,1,0,0,1.752h1.327a7.817,7.817,0,0,0-.4,1.752h-.925a.876.876,0,0,0,0,1.752h.925a7.8,7.8,0,0,0,.4,1.752Zm20.262,3.5a6.131,6.131,0,1,1,6.131-6.131A6.138,6.138,0,0,1,22.014,28.145Zm0,0"/><path class="a" d="M842.918,703.058h-2.628v-2.628a.876.876,0,0,0-1.752,0v3.5a.876.876,0,0,0,.876.876h3.5a.876.876,0,0,0,0-1.752Zm0,0" transform="translate(-817.401 -681.92)"/><path class="a" d="M213.421,421.586h-1.752a.876.876,0,1,0,0,1.752h1.752a.876.876,0,1,0,0-1.752Zm0,0" transform="translate(-205.479 -410.959)"/><path class="a" d="M213.421,560.57h-1.752a.876.876,0,1,0,0,1.752h1.752a.876.876,0,1,0,0-1.752Zm0,0" transform="translate(-205.479 -546.44)"/><path class="a" d="M213.421,699.555h-1.752a.876.876,0,0,0,0,1.752h1.752a.876.876,0,0,0,0-1.752Zm0,0" transform="translate(-205.479 -681.92)"/><path class="a" d="M491.954,423.338h1.752a.876.876,0,0,0,0-1.752h-1.752a.876.876,0,0,0,0,1.752Zm0,0" transform="translate(-478.699 -410.959)"/><path class="a" d="M491.954,562.322h1.752a.876.876,0,1,0,0-1.752h-1.752a.876.876,0,0,0,0,1.752Zm0,0" transform="translate(-478.699 -546.44)"/><path class="a" d="M213.421,838.539h-1.752a.876.876,0,1,0,0,1.752h1.752a.876.876,0,1,0,0-1.752Zm0,0" transform="translate(-205.479 -817.401)"/><path class="a" d="M769.923,423.338h1.752a.876.876,0,1,0,0-1.752h-1.752a.876.876,0,0,0,0,1.752Zm0,0" transform="translate(-749.661 -410.959)"/></svg>