<svg xmlns="http://www.w3.org/2000/svg" width="48" height="39" viewBox="0 0 48 39"><defs><style>.a{fill:#03a9f4;}</style></defs><path class="a" d="M48,52.617a20.517,20.517,0,0,1-5.67,1.554,9.785,9.785,0,0,0,4.329-5.439,19.666,19.666,0,0,1-6.24,2.382A9.84,9.84,0,0,0,23.4,57.843a10.133,10.133,0,0,0,.228,2.244A27.853,27.853,0,0,1,3.342,49.794,9.843,9.843,0,0,0,6.366,62.946,9.718,9.718,0,0,1,1.92,61.734v.108A9.886,9.886,0,0,0,9.8,71.511a9.822,9.822,0,0,1-2.58.324,8.7,8.7,0,0,1-1.863-.168,9.934,9.934,0,0,0,9.195,6.855,19.773,19.773,0,0,1-12.2,4.2A18.431,18.431,0,0,1,0,82.584,27.7,27.7,0,0,0,15.1,87C33.2,87,43.1,72,43.1,59c0-.435-.015-.855-.036-1.272A19.631,19.631,0,0,0,48,52.617Z" transform="translate(0 -48)"/></svg>